<svg width="19" height="16" viewBox="0 0 19 16" fill="none" xmlns="http://www.w3.org/2000/svg">
<path d="M18.4791 6.77083C18.6319 6.9375 18.7083 7.13542 18.7083 7.36458C18.7083 7.59375 18.6319 7.79167 18.4791 7.95833L15.5208 10.8958C15.368 11.0625 15.1735 11.1458 14.9374 11.1458C14.7013 11.1458 14.5069 11.0625 14.3541 10.8958L13.1666 9.72917C12.9999 9.5625 12.9166 9.36458 12.9166 9.13542C12.9166 8.90625 12.9999 8.70833 13.1666 8.54167C13.3333 8.38889 13.5312 8.3125 13.7603 8.3125C13.9895 8.3125 14.1874 8.38889 14.3541 8.54167L14.9374 9.125L17.2916 6.77083C17.4583 6.61806 17.6562 6.54167 17.8853 6.54167C18.1145 6.54167 18.3124 6.61806 18.4791 6.77083ZM8.60408 15.0208L6.52075 13.125C5.52075 12.2222 4.66311 11.4167 3.94784 10.7083C3.23256 10 2.64228 9.33333 2.177 8.70833C1.71172 8.08333 1.37145 7.47917 1.15617 6.89583C0.940891 6.3125 0.833252 5.70139 0.833252 5.0625C0.833252 3.75694 1.27075 2.67014 2.14575 1.80208C3.02075 0.934028 4.11103 0.5 5.41658 0.5C6.13881 0.5 6.82631 0.649306 7.47908 0.947917C8.13186 1.24653 8.69436 1.67361 9.16658 2.22917C9.63881 1.67361 10.2013 1.24653 10.8541 0.947917C11.5069 0.649306 12.1944 0.5 12.9166 0.5C14.0971 0.5 15.0867 0.857639 15.8853 1.57292C16.6839 2.28819 17.1805 3.125 17.3749 4.08333C17.0971 3.97222 16.8055 3.90278 16.4999 3.875C16.1944 3.84722 15.8819 3.83333 15.5624 3.83333C14.3819 3.83333 13.2985 4.30903 12.3124 5.26042C11.3263 6.21181 10.8333 7.40278 10.8333 8.83333C10.8333 9.5 10.9791 10.1771 11.2708 10.8646C11.5624 11.5521 11.9721 12.1111 12.4999 12.5417C12.236 12.7778 11.8923 13.0799 11.4687 13.4479C11.0451 13.816 10.6805 14.1389 10.3749 14.4167L9.70825 15.0208C9.55547 15.1597 9.37145 15.2292 9.15617 15.2292C8.94089 15.2292 8.75686 15.1597 8.60408 15.0208Z" fill="#74A766"/>
</svg>
