<svg width="18" height="15" viewBox="0 0 18 15" fill="none" xmlns="http://www.w3.org/2000/svg">
<path d="M7.93758 14.5417C6.42369 13.2083 5.19453 12.0868 4.25008 11.1771C3.30564 10.2674 2.56605 9.46875 2.03133 8.78125C1.49661 8.09375 1.1355 7.46528 0.947998 6.89583C0.760498 6.32639 0.666748 5.72222 0.666748 5.08333C0.666748 3.80556 1.11119 2.72222 2.00008 1.83333C2.88897 0.944444 3.9723 0.5 5.25008 0.5C5.87508 0.5 6.47925 0.614583 7.06258 0.84375C7.64591 1.07292 8.16675 1.40278 8.62508 1.83333L7.64591 5.27083C7.57647 5.54861 7.62161 5.79514 7.78133 6.01042C7.94105 6.22569 8.1598 6.33333 8.43758 6.33333H9.83341L9.29175 11.625C9.27786 11.7361 9.323 11.7986 9.42716 11.8125C9.53133 11.8264 9.5973 11.7847 9.62508 11.6875L11.1667 6.58333C11.2501 6.30556 11.2084 6.05556 11.0417 5.83333C10.8751 5.61111 10.6529 5.5 10.3751 5.5H9.00008L10.4792 1.08333C10.8265 0.888889 11.1911 0.743056 11.573 0.645833C11.9549 0.548611 12.3473 0.5 12.7501 0.5C14.0279 0.5 15.1112 0.944444 16.0001 1.83333C16.889 2.72222 17.3334 3.80556 17.3334 5.08333C17.3334 5.69444 17.2223 6.29861 17.0001 6.89583C16.7779 7.49306 16.3924 8.15278 15.8438 8.875C15.2952 9.59722 14.5591 10.4132 13.6355 11.3229C12.7119 12.2326 11.5417 13.3056 10.1251 14.5417C9.9723 14.6806 9.79869 14.7847 9.60425 14.8542C9.4098 14.9236 9.21536 14.9583 9.02092 14.9583C8.82647 14.9583 8.6355 14.9236 8.448 14.8542C8.2605 14.7847 8.09036 14.6806 7.93758 14.5417Z" fill="#E85D5D"/>
</svg>
